<?xml version="1.0" encoding="UTF-8"?>
<svg width="14px" height="20px" viewBox="0 0 14 20" version="1.1" xmlns="http://www.w3.org/2000/svg" xmlns:xlink="http://www.w3.org/1999/xlink">
    <!-- Generator: Sketch 47 (45396) - http://www.bohemiancoding.com/sketch -->
    <title>stats-arrow-up</title>
    <desc>Created with Sketch.</desc>
    <defs></defs>
    <g id="Page-1" stroke="none" stroke-width="1" fill="none" fill-rule="evenodd">
        <g id="stats-arrow-up" fill-rule="nonzero" fill="#189EA2">
            <path d="M7.52689471,0.342075257 L13.250954,6.88711517 C13.8210794,7.54846066 13.3649791,8.59749145 12.4755834,8.59749145 L10.582767,8.59749145 C10.3547168,8.59749145 10.1722767,8.77993158 10.1722767,9.00798176 L10.1722767,18.9737742 C10.1722767,19.5438997 9.71617635,20 9.14605093,20 L4.35699733,20 C3.78687191,20 3.33077157,19.5438997 3.33077157,18.9737742 L3.33077157,9.00798176 C3.33077157,8.77993158 3.14833143,8.59749145 2.92028126,8.59749145 L1.02746484,8.59749145 C0.138069171,8.59749145 -0.318031171,7.57126568 0.252094256,6.88711517 L5.97615355,0.342075257 C6.38664386,-0.114025086 7.1164044,-0.114025086 7.52689471,0.342075257 Z" id="noun_561580_cc"></path>
        </g>
    </g>
</svg>